<?xml version="1.0" standalone="no"?><!DOCTYPE svg PUBLIC "-//W3C//DTD SVG 1.1//EN" "http://www.w3.org/Graphics/SVG/1.1/DTD/svg11.dtd"><svg t="1691117727359" class="icon" viewBox="0 0 1024 1024" version="1.1" xmlns="http://www.w3.org/2000/svg" p-id="2268" xmlns:xlink="http://www.w3.org/1999/xlink" width="200" height="200"><path d="M513.6 675.3c-8.1 0-16.7-4.8-25.9-14.5L243.6 399.6c-9.2-9.7-13.7-19.1-13.7-28.3 0-15.1 7.8-22.6 23.4-22.6 5.9 0 10.8 1.9 14.6 5.7 3.2 3.8 6.5 7.5 9.7 11.3l223.1 240.1c5.4 5.9 9.7 8.9 12.9 8.9 3.8 0 8.3-3 13.7-8.9l219.1-240.1c10.2-11.3 18.3-17 24.3-17 15.6 0 23.4 7.5 23.4 22.6 0 9.2-4.6 18.6-13.7 28.3L540.3 660.7c-9.2 9.7-18.1 14.6-26.7 14.6z" fill="#ffffff" p-id="2269"></path></svg>